<svg xmlns="http://www.w3.org/2000/svg" width="388" height="388"><g data-name="그룹 162440"><path data-name="사각형 147937" fill="none" d="M0 0h388v388H0z"/><g data-name="그룹 162441"><path data-name="패스 83340" d="M90.93 338.855c-37.683 0-81.162-21.947-87.585-70.13-6.25-46.843-7.543-72.121 31.023-134.329 32.277-52.055 80.409-84.391 125.619-84.391a81.114 81.114 0 0130.676 5.792c20 8.126 30.235 18.43 38.46 26.706 9.412 9.475 16.209 16.32 40.766 22.2 7.291 1.743 14.321 3.142 21.118 4.491 42.883 8.528 83.393 16.588 95.648 98.708 4.136 27.723-2.2 52.26-18.311 70.962-31.106 36.094-87.908 38.9-104.579 38.9a150.055 150.055 0 01-15.31-.726c-9.124-.946-22.175-1.487-35.8-1.487-45.135 0-73.765 5.477-80.085 9.451-9.27 8.939-24.017 13.856-41.638 13.856" fill="#495c26"/><path data-name="패스 83341" d="M25.501 265.762c-5.449-40.869-8.126-61.538 27.865-119.594s91.729-84.762 128.887-69.669 29.028 37.154 82.439 49.93 88.243 6.963 99.856 84.758-80.117 87.084-113.79 83.6-117.271-2.319-133.528 13.938-84.762 9.29-91.729-42.963" fill="#bbcc83"/></g></g></svg>