<svg xmlns="http://www.w3.org/2000/svg" width="487.604" height="402.275"><defs><clipPath id="a"><path transform="translate(11519 3408.725)" fill="#fff" d="M0 0h487.604v402.275H0z"/></clipPath></defs><g data-name="그룹 162442"><g data-name="마스크 그룹 1319" transform="translate(-11519 -3408.725)" clip-path="url(#a)"><g data-name="그룹 162393"><path data-name="사각형 147923" fill="#bbcc83" d="M10725.922 3742.137l1240.936-1240.936 78.336 78.335-1240.937 1240.936z"/><path data-name="사각형 147924" fill="#98ae42" d="M10804.262 3820.479l1240.936-1240.936 78.336 78.336-1240.936 1240.936z"/><path data-name="사각형 147925" fill="#bbcc83" d="M10882.601 3898.818l1240.936-1240.936 78.336 78.336-1240.936 1240.936z"/><path data-name="사각형 147926" fill="#98ae42" d="M10960.941 3977.158l1240.936-1240.936 78.336 78.336-1240.936 1240.936z"/><path data-name="사각형 147927" fill="#bbcc83" d="M11039.28 4055.497l1240.936-1240.936 78.336 78.336-1240.936 1240.936z"/><path data-name="사각형 147928" fill="#98ae42" d="M11117.619 4133.837l1240.936-1240.936 78.336 78.336-1240.936 1240.936z"/><path data-name="사각형 147929" fill="#bbcc83" d="M11195.959 4212.177l1240.936-1240.936 78.336 78.336-1240.936 1240.936z"/><path data-name="사각형 147930" fill="#98ae42" d="M11274.297 4290.516l1240.936-1240.936 78.336 78.336-1240.936 1240.936z"/><path data-name="사각형 147931" fill="#bbcc83" d="M11352.637 4368.856l1240.936-1240.936 78.336 78.336-1240.936 1240.936z"/><path data-name="사각형 147932" fill="#98ae42" d="M11430.976 4447.195l1240.936-1240.936 78.336 78.336-1240.936 1240.936z"/><path data-name="사각형 147933" fill="#bbcc83" d="M11509.315 4525.535l1240.936-1240.936 78.336 78.336-1240.936 1240.936z"/><path data-name="사각형 147934" fill="#98ae42" d="M11587.654 4603.872l1240.936-1240.936 78.336 78.335-1240.937 1240.936z"/></g></g><text transform="translate(209 62)" fill="#fff" font-size="64" font-family="SpoqaHanSansNeo-Bold, Spoqa Han Sans Neo" font-weight="700"><tspan x="0" y="0">N</tspan></text><text transform="translate(213 384)" fill="#fff" font-size="64" font-family="SpoqaHanSansNeo-Bold, Spoqa Han Sans Neo" font-weight="700"><tspan x="0" y="0">S</tspan></text></g></svg>