<svg xmlns="http://www.w3.org/2000/svg" width="200" height="165"><defs><clipPath id="a"><path data-name="사각형 147953" transform="translate(-9983 -14353)" fill="#fff" stroke="#707070" d="M0 0h200v165H0z"/></clipPath><clipPath id="b"><path transform="translate(-9551 298)" fill="#fff" stroke="#d8d8d8" d="M0 0h200v165H0z"/></clipPath></defs><g data-name="마스크 그룹 1320" transform="translate(9983 14353)" clip-path="url(#a)"><g data-name="그룹 162423" transform="translate(-10375 -15930.5)"><rect data-name="Bgg" width="200" height="165" rx="6" transform="translate(392.5 1577)" fill="#fff"/><g data-name="마스크 그룹 1315" transform="translate(9943 1279)" clip-path="url(#b)"><g data-name="그룹 3651"><path data-name="사각형 2219" fill="#bbcc83" d="M-9830.667 437.533L-9406.134 13l26.8 26.8-424.533 424.533z"/><path data-name="사각형 2220" fill="#98ae42" d="M-9803.866 464.334L-9379.332 39.8l26.8 26.8-424.534 424.534z"/><path data-name="사각형 2221" fill="#bbcc83" d="M-9777.066 491.134L-9352.532 66.6l26.8 26.8-424.534 424.534z"/><path data-name="사각형 2222" fill="#98ae42" d="M-9750.265 517.935l424.534-424.534 26.8 26.8-424.534 424.534z"/><path data-name="사각형 2223" fill="#bbcc83" d="M-9723.465 544.735l424.534-424.534 26.8 26.8-424.534 424.534z"/><path data-name="사각형 2224" fill="#98ae42" d="M-9696.664 571.536l424.534-424.534 26.8 26.8-424.534 424.534z"/><path data-name="사각형 2225" fill="#bbcc83" d="M-9669.864 598.336l424.534-424.534 26.8 26.8-424.534 424.534z"/><path data-name="사각형 2226" fill="#98ae42" d="M-9643.063 625.137l424.534-424.534 26.8 26.8-424.534 424.534z"/><path data-name="사각형 2227" fill="#bbcc83" d="M-9616.263 651.937l424.534-424.534 26.8 26.8-424.534 424.534z"/><path data-name="사각형 2228" fill="#98ae42" d="M-9589.462 678.738l424.534-424.534 26.8 26.8-424.534 424.534z"/><path data-name="사각형 2229" fill="#bbcc83" d="M-9562.662 705.538l424.534-424.534 26.8 26.8-424.534 424.534z"/><path data-name="사각형 2230" fill="#98ae42" d="M-9535.861 732.338l424.533-424.533 26.8 26.8-424.533 424.533z"/></g></g></g></g></svg>