<svg xmlns="http://www.w3.org/2000/svg" width="43" height="43"><defs><clipPath id="a"><path data-name="사각형 147718" fill="none" d="M0 0h32.533v32.533H0z"/></clipPath></defs><g data-name="그룹 162506" transform="translate(-1649 -20)"><circle data-name="타원 83" cx="21.5" cy="21.5" r="21.5" transform="translate(1649 20)" fill="#fff"/><g data-name="그룹 161679"><g data-name="그룹 161677" transform="translate(1654 25)" clip-path="url(#a)"><path data-name="패스 83321" d="M16.267 3.81A12.457 12.457 0 113.81 16.267 12.471 12.471 0 0116.267 3.81m0-3.81a16.267 16.267 0 1016.266 16.267A16.267 16.267 0 0016.267 0" fill="#090406"/><path data-name="패스 83322" d="M12.182 32.016v-8.712a8.131 8.131 0 10-4.067-7.039v14.082a16.179 16.179 0 004.067 1.669m4.067-19.818a4.067 4.067 0 11-4.067 4.067 4.067 4.067 0 014.067-4.067" fill="#bc011a"/></g></g></g></svg>