<svg xmlns="http://www.w3.org/2000/svg" width="178" height="38"><defs><clipPath id="a"><path data-name="사각형 147718" fill="none" d="M0 0h28.828v28.828H0z"/></clipPath></defs><g data-name="그룹 161846"><text transform="translate(48 24)" fill="#171725" font-size="17" font-family="SpoqaHanSansNeo-Bold, Spoqa Han Sans Neo" font-weight="700" letter-spacing=".004em"><tspan x="0" y="0">GOLFZON DECA</tspan></text><g data-name="타원 82" fill="none" stroke="#cdcdcd"><circle cx="19" cy="19" r="19" stroke="none"/><circle cx="19" cy="19" r="18.5"/></g><g data-name="그룹 161678"><g data-name="그룹 161677" transform="translate(4.496 4.675)" clip-path="url(#a)"><path data-name="패스 83321" d="M14.414 3.376A11.038 11.038 0 113.376 14.414 11.051 11.051 0 0114.414 3.376m0-3.376a14.414 14.414 0 1014.414 14.414A14.414 14.414 0 0014.414 0" fill="#090406"/><path data-name="패스 83322" d="M10.795 28.37v-7.72a7.2 7.2 0 10-3.6-6.238v12.479a14.337 14.337 0 003.6 1.479m3.6-17.562a3.6 3.6 0 11-3.6 3.6 3.6 3.6 0 013.6-3.6" fill="#bc011a"/></g></g></g></svg>