<svg xmlns="http://www.w3.org/2000/svg" width="208" height="44"><defs><clipPath id="a"><path data-name="사각형 147718" fill="none" d="M0 0h33.338v33.338H0z"/></clipPath></defs><g data-name="그룹 161846"><text transform="translate(55 28)" fill="#171725" font-size="20" font-family="SpoqaHanSansNeo-Bold, Spoqa Han Sans Neo" font-weight="700" letter-spacing=".004em"><tspan x="0" y="0">GOLFZON DECA</tspan></text><g data-name="타원 82" fill="none" stroke="#cdcdcd"><circle cx="22" cy="22" r="22" stroke="none"/><circle cx="22" cy="22" r="21.5"/></g><g data-name="그룹 161678"><g data-name="그룹 161677" transform="translate(5.199 5.462)" clip-path="url(#a)"><path data-name="패스 83321" d="M16.669 3.9A12.765 12.765 0 113.9 16.669 12.779 12.779 0 0116.669 3.9m0-3.9a16.669 16.669 0 1016.669 16.669A16.669 16.669 0 0016.669 0" fill="#090406"/><path data-name="패스 83322" d="M12.482 32.808V23.88a8.332 8.332 0 10-4.167-7.213v14.431a16.579 16.579 0 004.167 1.71m4.167-20.309a4.167 4.167 0 11-4.167 4.167 4.167 4.167 0 014.167-4.167" fill="#bc011a"/></g></g></g></svg>