<svg xmlns="http://www.w3.org/2000/svg" width="28.8" height="28.8"><path data-name="패스 386" d="M0 0h28.8v28.8H0z" fill="none"/><path data-name="패스 387" d="M12.39 5.18a2.068 2.068 0 014.02 0 2.069 2.069 0 003.09 1.28 2.07 2.07 0 012.842 2.84 2.069 2.069 0 001.278 3.09 2.068 2.068 0 010 4.02 2.069 2.069 0 00-1.28 3.09 2.07 2.07 0 01-2.84 2.842 2.069 2.069 0 00-3.09 1.278 2.068 2.068 0 01-4.02 0 2.069 2.069 0 00-3.09-1.28 2.07 2.07 0 01-2.842-2.84 2.069 2.069 0 00-1.278-3.09 2.068 2.068 0 010-4.02A2.069 2.069 0 006.46 9.3 2.07 2.07 0 019.3 6.458a2.068 2.068 0 003.09-1.278z" fill="none" stroke="#aaa" stroke-linecap="round" stroke-linejoin="round" stroke-width="2"/><circle data-name="타원 2" cx="3.5" cy="3.5" r="3.5" transform="translate(11 11)" fill="none" stroke="#aaa" stroke-linecap="round" stroke-linejoin="round" stroke-width="2"/></svg>