<svg data-name="그룹 1938" xmlns="http://www.w3.org/2000/svg" width="165.097" height="157.563"><defs><clipPath id="a"><path data-name="사각형 1632" fill="none" d="M0 0h165.097v157.563H0z"/></clipPath></defs><g data-name="그룹 1937" clip-path="url(#a)"><path data-name="패스 807" d="M82.549 10.685a34.936 34.936 0 11-34.9 34.936 34.957 34.957 0 0134.9-34.936m0-10.685a45.62 45.62 0 1045.573 45.62A45.595 45.595 0 0082.549 0" fill="#090406"/><path data-name="패스 808" d="M71.105 89.79V65.356a22.807 22.807 0 10-11.392-19.742v39.495a45.215 45.215 0 0011.392 4.681m11.392-55.582a11.405 11.405 0 11-11.392 11.406 11.4 11.4 0 0111.392-11.406" fill="#bc011a"/><path data-name="패스 809" d="M2.29 107.182q2.133-2.371 6.3-2.371t6.3 2.371q2.135 2.371 2.135 6.8v1.148h-5.419v-1.513a4.2 4.2 0 00-.729-2.736 2.64 2.64 0 00-2.133-.86 2.641 2.641 0 00-2.135.86 4.2 4.2 0 00-.729 2.736 6.752 6.752 0 001.22 4.013 25.052 25.052 0 003.669 3.907 44.537 44.537 0 013.28 3.309 13.35 13.35 0 012.135 3.465 11.53 11.53 0 01.884 4.638q0 4.43-2.186 6.8a8.211 8.211 0 01-6.349 2.371 8.212 8.212 0 01-6.351-2.371Q0 137.379 0 132.949v-2.241h5.413v2.606q0 3.54 2.965 3.54t2.968-3.543a6.753 6.753 0 00-1.223-4.013 24.947 24.947 0 00-3.67-3.908 44.455 44.455 0 01-3.277-3.308 13.287 13.287 0 01-2.135-3.466 11.5 11.5 0 01-.885-4.638q0-4.428 2.135-6.8" fill="#090406"/><path data-name="패스 810" d="M36.382 105.228h7.963v36.476h-5.413v-26.158l-3.956 26.157h-5.413l-4.268-25.792v25.792h-5v-36.475h7.963l4.216 25.9z" fill="#090406"/><path data-name="패스 811" d="M61.26 141.702l-.989-6.619h-7.027l-.988 6.619h-5.263l5.829-36.474h8.382l5.83 36.474zm-1.767-11.568l-2.761-18.444-2.758 18.444z" fill="#090406"/><path data-name="패스 812" d="M81.247 140.035a24.827 24.827 0 01-.1-2.814v-5.731a5.63 5.63 0 00-.885-3.568 3.509 3.509 0 00-2.871-1.065h-1.974v14.85h-5.726v-36.479h8.64q4.422 0 6.454 2.059t2.031 6.329v2.867q0 5.627-3.749 7.4a5.294 5.294 0 012.915 2.789 12.119 12.119 0 01.884 4.977v5.627a24.211 24.211 0 00.1 2.526 6.341 6.341 0 00.519 1.9h-5.822a8.329 8.329 0 01-.415-1.667m-5.83-18.393h2.238a3.427 3.427 0 002.577-.885 4.191 4.191 0 00.858-2.97v-3.595a4.645 4.645 0 00-.7-2.867 2.652 2.652 0 00-2.213-.885h-2.761z" fill="#090406"/><path data-name="패스 813" d="M106.642 105.228v5.212h-5.981v31.264h-5.725v-31.265H88.95v-5.211z" fill="#090406"/><path data-name="패스 814" d="M132.046 107.521q2.133 2.294 2.133 6.722v4.743q0 4.428-2.133 6.721t-6.4 2.294h-2.71v13.7h-5.723v-36.473h8.43q4.269 0 6.4 2.293m-9.11 15.268h2.71a2.692 2.692 0 002.109-.782 3.971 3.971 0 00.7-2.658v-5.47a3.975 3.975 0 00-.7-2.659 2.7 2.7 0 00-2.109-.781h-2.707z" fill="#090406"/><path data-name="사각형 1631" fill="#090406" d="M137.092 105.227h5.727v36.476h-5.727z"/><path data-name="패스 815" d="M152.083 141.703h-5.153v-36.476h7.183l5.882 21.835v-21.835h5.1v36.476h-5.881l-7.131-26.418z" fill="#090406"/><path data-name="패스 816" d="M96.398 147.446h.976v3.225h.023a1.883 1.883 0 011.756-.856c1.54 0 2.286 1.261 2.286 2.692 0 1.454-.673 2.867-2.278 2.867a2.126 2.126 0 01-1.807-.872h-.024v.746h-.932zm2.542 3.163c-1.058 0-1.566 1.01-1.566 2 0 .887.454 1.977 1.558 1.977 1.05 0 1.484-1.172 1.467-2.008.017-.958-.4-1.969-1.459-1.969" fill="#090406"/><path data-name="패스 817" d="M102.352 156.687a1.474 1.474 0 00.458.085c.869 0 1.163-1.205 1.163-1.312a2.8 2.8 0 00-.188-.562l-1.792-4.959h1.066l1.426 4.4h.021l1.454-4.4h.986l-1.955 5.424c-.362 1.021-.745 2.2-2.032 2.2a3.512 3.512 0 01-.672-.07z" fill="#090406"/><path data-name="패스 818" d="M112.981 149.571h2.249v3.236c0 1.629-.819 2.563-2.389 2.563s-2.387-.935-2.387-2.563v-5.305c0-1.629.812-2.566 2.387-2.566s2.389.937 2.389 2.566v.989h-1.518v-1.092c0-.725-.32-1-.828-1s-.832.279-.832 1v5.51c0 .727.325.989.832.989s.828-.262.828-.989v-1.88h-.73z" fill="#090406"/><path data-name="패스 819" d="M116.418 147.501a2.433 2.433 0 114.858 0v5.307a2.433 2.433 0 11-4.858 0zm1.6 5.407c0 .729.317 1.008.827 1.008s.831-.279.831-1.008v-5.509c0-.726-.323-1-.831-1s-.827.277-.827 1z" fill="#090406"/><path data-name="패스 820" d="M122.603 145.055h1.6v8.74h2.64v1.456h-4.24z" fill="#090406"/><path data-name="패스 821" d="M129.432 149.588h2.067v1.452h-2.067v4.211h-1.6v-10.195h4.237v1.455h-2.637z" fill="#090406"/><path data-name="패스 822" d="M137.912 147.398v.366a2 2 0 01-1.037 2.054 2.064 2.064 0 011.2 2.188v.831a2.165 2.165 0 01-2.436 2.413h-2.512v-10.195h2.412c1.654 0 2.371.771 2.371 2.343m-3.19-.888v2.7h.628c.6 0 .965-.265.965-1.079v-.569c0-.727-.247-1.049-.816-1.049zm0 4.154v3.131h.916c.539 0 .834-.248.834-1v-.892c0-.946-.305-1.237-1.031-1.237z" fill="#090406"/><path data-name="패스 823" d="M140.851 145.055v7.864c0 .733.32 1 .834 1s.827-.263.827-1v-7.864h1.517v7.764c0 1.633-.814 2.565-2.388 2.565s-2.385-.932-2.385-2.565v-7.764z" fill="#090406"/><path data-name="패스 824" d="M145.407 145.055h2.53c1.6 0 2.389.888 2.389 2.517v5.16c0 1.633-.789 2.518-2.389 2.518h-2.53zm1.6 1.455v7.285h.9c.51 0 .819-.263.819-.988V147.5c0-.725-.309-.99-.819-.99z" fill="#090406"/><path data-name="패스 825" d="M151.641 145.055h2.525c1.608 0 2.388.888 2.388 2.517v5.16c0 1.633-.781 2.518-2.388 2.518h-2.525zm1.594 1.455v7.285h.9c.507 0 .816-.263.816-.988V147.5c0-.725-.309-.99-.816-.99z" fill="#090406"/><path data-name="패스 826" d="M159.149 151.875l-2.026-6.82h1.669l1.223 4.646 1.221-4.646h1.533l-2.026 6.82v3.376h-1.594z" fill="#090406"/><path data-name="패스 827" d="M165.096 154.049a1.14 1.14 0 11-1.143-1.139 1.123 1.123 0 011.143 1.139m-2.1 0a.959.959 0 10.956-.972.952.952 0 00-.956.972m.7.664h-.159v-1.317h.508c.292 0 .426.129.426.358a.352.352 0 01-.329.369l.385.589h-.19l-.366-.589h-.275zm.218-.723c.2 0 .4-.008.4-.235 0-.183-.162-.223-.316-.223h-.3v.458z" fill="#090406"/></g></svg>