<svg xmlns="http://www.w3.org/2000/svg" width="128.29" height="34.686"><defs><clipPath id="a"><path data-name="사각형 2214" fill="#d2d2d2" d="M0 0h128.29v34.686H0z"/></clipPath></defs><g data-name="그룹 3634" clip-path="url(#a)" fill="#d2d2d2"><path data-name="패스 3223" d="M17.343 4.062A13.281 13.281 0 114.062 17.343 13.3 13.3 0 0117.343 4.062m0-4.062a17.343 17.343 0 1017.343 17.343A17.343 17.343 0 0017.343 0"/><path data-name="패스 3224" d="M12.988 34.135v-9.289a8.669 8.669 0 10-4.336-7.5v15.009a17.25 17.25 0 004.336 1.779m4.336-21.13a4.336 4.336 0 11-4.336 4.337 4.336 4.336 0 014.336-4.336"/><path data-name="패스 3225" d="M41.48 8.761a5.043 5.043 0 016.646 0 5.179 5.179 0 011.126 3.583v.605h-2.856v-.8a2.209 2.209 0 00-.385-1.442 1.625 1.625 0 00-2.252 0 2.206 2.206 0 00-.385 1.442 3.552 3.552 0 00.645 2.115 13.153 13.153 0 001.937 2.063 23.479 23.479 0 011.731 1.745 7.038 7.038 0 011.126 1.826 6.064 6.064 0 01.467 2.444 5.1 5.1 0 01-1.154 3.585 5.116 5.116 0 01-6.7 0 5.094 5.094 0 01-1.158-3.585v-1.181h2.86v1.374q0 1.867 1.565 1.867t1.566-1.867a3.555 3.555 0 00-.645-2.115 13.136 13.136 0 00-1.936-2.06 23.458 23.458 0 01-1.73-1.744 7.017 7.017 0 01-1.126-1.827 6.054 6.054 0 01-.467-2.444 5.174 5.174 0 011.126-3.583"/><path data-name="패스 3226" d="M59.468 7.73h4.2v19.225h-2.856V13.169l-2.087 13.786h-2.857l-2.25-13.594v13.594h-2.637V7.73h4.2l2.224 13.649z"/><path data-name="패스 3227" d="M72.595 26.955l-.522-3.488h-3.708l-.522 3.488h-2.774l3.075-19.224h4.422l3.076 19.224zm-.934-6.1l-1.455-9.721-1.456 9.721z"/><path data-name="패스 3228" d="M83.14 26.077a13.018 13.018 0 01-.055-1.484v-3.021a2.961 2.961 0 00-.467-1.88 1.851 1.851 0 00-1.509-.564h-1.044v7.827h-3.022V7.731h4.559a4.623 4.623 0 013.405 1.085 4.583 4.583 0 011.071 3.337v1.51q0 2.967-1.978 3.9a2.785 2.785 0 011.538 1.469 6.382 6.382 0 01.466 2.623v2.966a12.838 12.838 0 00.055 1.331 3.337 3.337 0 00.275 1h-3.076a4.406 4.406 0 01-.219-.879m-3.076-9.694h1.181a1.812 1.812 0 001.359-.467 2.2 2.2 0 00.453-1.565v-1.9a2.445 2.445 0 00-.37-1.511 1.4 1.4 0 00-1.167-.466h-1.456z"/><path data-name="패스 3229" d="M96.542 7.73v2.747h-3.158v16.478h-3.021V10.477h-3.158V7.73z"/><path data-name="패스 3230" d="M109.943 8.94a5.021 5.021 0 011.125 3.543v2.5a5.017 5.017 0 01-1.125 3.542 4.4 4.4 0 01-3.378 1.209h-1.429v7.222h-3.02V7.731h4.445a4.4 4.4 0 013.378 1.209m-4.807 8.047h1.429a1.424 1.424 0 001.113-.412 2.094 2.094 0 00.37-1.4V12.29a2.093 2.093 0 00-.37-1.4 1.424 1.424 0 00-1.113-.412h-1.429z"/><path data-name="사각형 2213" d="M112.606 7.731h3.021v19.224h-3.021z"/><path data-name="패스 3231" d="M120.515 26.954h-2.719V7.73h3.79l3.1 11.508V7.73h2.692v19.224h-3.1l-3.763-13.923z"/><path data-name="패스 3232" d="M96.282 29.827h.455v1.5h.011a.877.877 0 01.818-.4c.717 0 1.065.587 1.065 1.253s-.314 1.335-1.062 1.335a.992.992 0 01-.842-.406h-.011v.347h-.434zm1.184 1.472c-.493 0-.73.47-.73.931 0 .413.211.92.726.92.49 0 .692-.546.684-.935.008-.446-.185-.916-.68-.916"/><path data-name="패스 3233" d="M99.056 34.129a.687.687 0 00.213.039c.406 0 .542-.561.542-.61a1.33 1.33 0 00-.088-.261l-.836-2.308h.5l.664 2.047h.011l.677-2.047h.46l-.911 2.524c-.169.475-.347 1.023-.947 1.023a1.667 1.667 0 01-.313-.033z"/><path data-name="패스 3234" d="M104.009 30.816h1.05v1.506a1.041 1.041 0 01-1.114 1.192c-.733 0-1.112-.435-1.112-1.192v-2.47c0-.758.378-1.194 1.112-1.194a1.042 1.042 0 011.114 1.195v.46h-.708v-.508c0-.338-.149-.467-.386-.467s-.388.129-.388.467v2.563c0 .339.151.461.388.461s.386-.122.386-.461v-.874h-.34z"/><path data-name="패스 3235" d="M105.612 29.853a1.134 1.134 0 112.264 0v2.47a1.133 1.133 0 11-2.264 0zm.746 2.516c0 .339.148.469.385.469s.387-.13.387-.469v-2.564c0-.338-.15-.467-.387-.467s-.385.129-.385.467z"/><path data-name="패스 3236" d="M108.492 28.713h.747v4.068h1.23v.677h-1.977z"/><path data-name="패스 3237" d="M111.672 30.824h.963v.676h-.963v1.96h-.745v-4.747h1.974v.677h-1.229z"/><path data-name="패스 3238" d="M115.624 29.805v.171a.931.931 0 01-.483.956.961.961 0 01.559 1.018v.387a1.008 1.008 0 01-1.135 1.123h-1.17v-4.747h1.125c.771 0 1.1.359 1.1 1.091m-1.486-.413v1.256h.293c.281 0 .449-.124.449-.5v-.264c0-.339-.115-.488-.38-.488zm0 1.933v1.457h.427c.251 0 .388-.116.388-.466V31.9c0-.44-.142-.576-.48-.576z"/><path data-name="패스 3239" d="M116.992 28.713v3.66c0 .341.149.464.389.464s.385-.123.385-.464v-3.66h.707v3.613c0 .76-.379 1.194-1.113 1.194s-1.111-.434-1.111-1.194v-3.613z"/><path data-name="패스 3240" d="M119.116 28.713h1.179c.746 0 1.114.413 1.114 1.171v2.4c0 .759-.367 1.172-1.114 1.172h-1.179zm.745.677v3.393h.421c.238 0 .381-.123.381-.46v-2.47c0-.338-.144-.461-.381-.461z"/><path data-name="패스 3241" d="M122.022 28.713h1.176c.749 0 1.112.413 1.112 1.171v2.4c0 .759-.363 1.172-1.112 1.172h-1.176zm.742.677v3.393h.421c.237 0 .38-.123.38-.46v-2.47c0-.338-.144-.461-.38-.461z"/><path data-name="패스 3242" d="M125.515 31.889l-.94-3.176h.778l.57 2.162.569-2.162h.714l-.944 3.174v1.571h-.747z"/><path data-name="패스 3243" d="M128.29 32.9a.531.531 0 11-.532-.53.523.523 0 01.532.53m-.978 0a.447.447 0 10.446-.452.443.443 0 00-.446.452m.328.309h-.074v-.613h.237c.136 0 .2.06.2.168a.164.164 0 01-.153.172l.18.274h-.089l-.171-.274h-.128zm.1-.337c.092 0 .185 0 .185-.109 0-.085-.075-.1-.147-.1h-.139v.213z"/></g></svg>